# xmcd CD database file
#
# Track frame offsets:
#	150
#	13166
#	27222
#	40924
#	56079
#	71731
#	84494
#	97310
#	112042
#	127255
#	140651
#
# Disc length: 2271 seconds
#
# Revision: 1
# Processed by: cddbd v1.5.1PL2 Copyright (c) Steve Scherf et al.
# Submitted via: CDex 1.70beta1
#
DISCID=a708dd0b
DTITLE=Various Artist - Roots of The Blues Vol.3
DYEAR=2001
DGENRE=Blues
TTITLE0=Joe Turner - Roll 'Em Pete
TTITLE1=Mama Smith - Goin' Crazy With The Blues
TTITLE2=Blind Lemon Jefferson - Black Snake Moan
TTITLE3=Trixie Smith - Freight Train Blues
TTITLE4=Billy Eckstine - Jelly, Jelly
TTITLE5=Memphis Minnie - Me And My Chauffeur Blues
TTITLE6=Jimmy Yancey - Bear Trap Blues
TTITLE7=Helen Humes - Unlucky Woman
TTITLE8=Blind Willie McTell - Travelin' Blues
TTITLE9=Monette Moore - Hard Hearted Papa
TTITLE10=Willie Bryant - Blues Around The Clock, Parts 1 and 2
EXTD=YEAR: 2001
EXTT0=
EXTT1=
EXTT2=
EXTT3=
EXTT4=
EXTT5=
EXTT6=
EXTT7=
EXTT8=
EXTT9=
EXTT10=
PLAYORDER=
